<svg xmlns="http://www.w3.org/2000/svg" width="375" viewBox="0 0 375 375" height="375" version="1.0"><defs><clipPath id="a"><path d="M 159 89.511719 L 244.703125 89.511719 L 244.703125 282 L 159 282 Z M 159 89.511719"/></clipPath><clipPath id="b"><path d="M 133 89.511719 L 244.703125 89.511719 L 244.703125 285.261719 L 133 285.261719 Z M 133 89.511719"/></clipPath><clipPath id="c"><path d="M 131 89.511719 L 244.703125 89.511719 L 244.703125 165 L 131 165 Z M 131 89.511719"/></clipPath><clipPath id="d"><path d="M 129.953125 204 L 238 204 L 238 285.261719 L 129.953125 285.261719 Z M 129.953125 204"/></clipPath></defs><path fill="#52796F" d="M 187.5 4.144531 C 85.949219 4.144531 4.144531 85.949219 4.144531 187.5 C 4.144531 289.050781 85.949219 370.855469 187.5 370.855469 C 288.109375 370.855469 370.855469 289.050781 370.855469 187.5 C 370.855469 85.949219 288.109375 4.144531 187.5 4.144531 Z M 187.5 342.644531 C 101.933594 342.644531 32.355469 273.066406 32.355469 187.5 C 32.355469 101.933594 101.933594 32.355469 187.5 32.355469 C 273.066406 32.355469 342.644531 101.933594 342.644531 187.5 C 342.644531 273.066406 273.066406 342.644531 187.5 342.644531 Z M 187.5 342.644531"/><path fill="#354F52" d="M 187.5 32.355469 C 101.933594 32.355469 32.355469 101.933594 32.355469 187.5 C 32.355469 273.066406 101.933594 342.644531 187.5 342.644531 C 273.066406 342.644531 342.644531 273.066406 342.644531 187.5 C 342.644531 101.933594 273.066406 32.355469 187.5 32.355469 Z M 187.5 32.355469"/><path fill="#FF9D8E" d="M 182.730469 118.421875 C 181.609375 136.941406 182.109375 170.472656 182.917969 189.179688 C 183.726562 207.882812 184.847656 211.761719 187.277344 215.078125 C 189.707031 218.394531 193.445312 221.144531 196.1875 225.589844 C 198.925781 230.03125 200.671875 236.160156 201.84375 241.976562 C 203.015625 247.789062 203.617188 253.285156 206.214844 252.714844 C 208.808594 252.140625 213.398438 245.496094 214.84375 223.601562 C 216.285156 201.710938 214.582031 164.570312 212.859375 141.683594 C 211.136719 118.796875 209.390625 110.164062 205.46875 104.410156 C 201.542969 98.652344 195.4375 95.777344 191.015625 96.089844 C 186.59375 96.402344 183.851562 99.90625 182.730469 118.421875" fill-rule="evenodd"/><path fill="#FFE66D" d="M 134.328125 257.117188 C 136.261719 260.683594 139.625 264.0625 144.855469 265.625 C 150.089844 267.191406 157.191406 266.941406 161.863281 262.496094 C 166.535156 258.054688 168.777344 249.421875 167.78125 243.042969 C 166.785156 236.660156 162.546875 232.53125 156.503906 231.40625 C 150.464844 230.28125 142.613281 232.15625 138.128906 235.097656 C 133.644531 238.035156 132.523438 242.039062 132.210938 245.917969 C 131.898438 249.796875 132.398438 253.550781 134.328125 257.117188" fill-rule="evenodd"/><g clip-path="url(#a)"><path fill="#FED9B7" d="M 169.402344 90.144531 C 181.859375 90.019531 208.394531 89.769531 224.09375 89.832031 C 239.792969 89.894531 244.652344 90.269531 244.277344 90.644531 C 243.902344 91.019531 238.296875 91.398438 233.1875 92.585938 C 228.082031 93.773438 223.472656 95.773438 221.167969 100.84375 C 218.863281 105.910156 218.863281 114.042969 218.738281 130.621094 C 218.613281 147.199219 218.363281 172.222656 218.613281 192.179688 C 218.863281 212.136719 219.609375 227.027344 217.988281 238.851562 C 216.371094 250.675781 212.382812 259.433594 208.332031 265.4375 C 204.285156 271.445312 200.171875 274.695312 194.753906 277.386719 C 189.335938 280.078125 182.605469 282.203125 183.042969 281.640625 C 183.476562 281.078125 191.078125 277.824219 196.871094 271.507812 C 202.664062 265.1875 206.652344 255.804688 208.210938 237.847656 C 209.765625 219.894531 208.894531 193.367188 208.582031 172.347656 C 208.269531 151.328125 208.519531 135.8125 206.089844 125.679688 C 203.660156 115.542969 198.554688 110.789062 192.824219 106.035156 C 187.089844 101.28125 180.738281 96.527344 175.195312 93.898438 C 169.648438 91.269531 164.914062 90.769531 161.738281 90.519531 C 158.5625 90.269531 156.941406 90.269531 169.402344 90.144531" fill-rule="evenodd"/></g><g clip-path="url(#b)"><path transform="matrix(.01193 0 0 -.01198 130.187 285.038)" fill="none" d="M 3287.218888 16268.8514 C 4331.853722 16278.959767 6556.369217 16300.15473 7872.478119 16294.937508 C 9188.587021 16289.720286 9595.634388 16258.090881 9564.524573 16226.787552 C 9533.087286 16195.484223 9063.165347 16164.180894 8634.832318 16065.053685 C 8206.499289 15965.926476 7820.082642 15798.64931 7626.874318 15375.728291 C 7433.665994 14952.807271 7433.665994 14273.91632 7423.186899 12890.04831 C 7413.035275 11505.854224 7392.077084 9417.009156 7413.035275 7751.411184 C 7433.665994 6085.487136 7496.540568 4842.484107 7360.639798 3855.45101 C 7224.739028 2868.417913 6890.717858 2137.354747 6551.129669 1636.175404 C 6211.868952 1134.669985 5867.041215 863.374465 5412.837919 638.707863 C 4958.634623 414.041261 4394.400824 236.65573 4431.077658 283.610723 C 4467.42702 330.565717 5104.687016 602.187313 5590.327599 1129.452763 C 6075.968182 1657.04429 6410.316823 2440.279671 6540.650574 3938.926554 C 6671.311796 5437.899514 6598.285599 7651.957899 6572.08786 9406.574713 C 6545.890121 11161.517603 6566.848312 12456.366771 6363.160893 13302.534887 C 6159.473474 14148.376927 5731.467917 14545.211839 5250.73941 14942.046751 C 4770.338375 15339.20774 4237.869334 15736.042652 3773.186943 15955.165956 C 3308.177079 16174.615337 2911.281337 16216.353109 2645.046816 16237.221995 C 2378.812296 16258.090881 2242.911526 16258.090881 3287.218888 16268.8514 Z M 3287.218888 16268.8514" stroke="#FFF" stroke-width="66.614" stroke-miterlimit="22.926"/></g><g clip-path="url(#c)"><path transform="matrix(.01191 0 0 -.01197 130.187 285.038)" fill="none" d="M 2331.12095 16122.477215 C 2498.32802 16071.222997 3137.649169 16022.253999 3614.353247 15899.831503 C 4090.729468 15777.082547 4404.16076 15580.553634 4554.974979 14909.351897 C 4705.789199 14238.47662 4693.65849 13093.25498 4875.946982 12562.431039 C 5058.235474 12031.607097 5434.61531 12115.180854 5868.697977 12742.636952 C 6302.452788 13370.093051 6793.910431 14541.10503 7343.726619 15202.839427 C 7893.542808 15864.247364 8501.717543 16016.377719 8276.807641 16115.948015 C 8052.225596 16215.518312 6994.558915 16262.20209 5938.859375 16281.13677 C 4883.159836 16300.071449 3829.099582 16290.930569 3149.452021 16259.26395 C 2469.476604 16227.923792 2164.241737 16173.731433 2331.12095 16122.477215 Z M 2331.12095 16122.477215" stroke="#FFF" stroke-width="66.69" stroke-miterlimit="22.926"/></g><g clip-path="url(#d)"><path transform="matrix(.00934 0 0 -.00938 130.187 285.038)" fill="none" d="M 7642.453686 4437.747904 C 7476.06961 3684.30089 7282.930306 2779.748204 6947.653851 2075.420941 C 6612.377396 1371.093677 6134.545741 866.575566 5461.066478 612.651434 C 4787.587216 359.143571 3918.878396 356.645957 3144.648977 448.641421 C 2370.001508 541.053154 1689.833438 727.957966 1163.507931 1115.0882 C 636.764374 1501.802164 263.445329 2088.741551 130.923338 2630.723878 C -1.180601 3173.122474 107.930564 3670.98028 107.930564 3717.602416 C 107.930564 3764.224551 -1.180601 3359.611017 64.453318 2864.250825 C 130.087238 2368.474365 370.048191 1781.951247 870.03652 1248.710571 C 1370.02485 715.469894 2130.040554 235.511658 3163.461247 95.228982 C 4196.46389 -45.053694 5503.289573 154.33919 6455.19043 607.656205 C 7407.509338 1060.973221 8004.485369 1767.798099 8344.778429 2524.158996 C 8685.071489 3280.519894 8768.681578 4086.41681 8682.981237 4739.959248 C 8597.698947 5393.501685 8343.942328 5894.273375 8146.62252 5843.904818 C 7949.720761 5793.119991 7809.255813 5191.194918 7642.453686 4437.747904 Z M 7642.453686 4437.747904" stroke="#FFF" stroke-width="85.039" stroke-miterlimit="22.926"/></g></svg>