<svg xmlns="http://www.w3.org/2000/svg" width="375" viewBox="0 0 375 375" height="375" version="1.0"><defs><clipPath id="a"><path d="M 89 8.726562 L 292.511719 8.726562 L 292.511719 366.21875 L 89 366.21875 Z M 89 8.726562"/></clipPath><clipPath id="b"><path d="M 85 8.726562 L 292.511719 8.726562 L 292.511719 146 L 85 146 Z M 85 8.726562"/></clipPath><clipPath id="c"><path d="M 82.511719 217 L 280 217 L 280 366.21875 L 82.511719 366.21875 Z M 82.511719 217"/></clipPath></defs><path fill="#FF9D8E" d="M 179.09375 61.359375 C 177.042969 95.070312 177.953125 156.121094 179.433594 190.175781 C 180.917969 224.230469 182.96875 231.292969 187.417969 237.328125 C 191.863281 243.367188 198.703125 248.375 203.71875 256.464844 C 208.734375 264.550781 211.925781 275.710938 214.074219 286.296875 C 216.21875 296.882812 217.320312 306.890625 222.070312 305.847656 C 226.820312 304.804688 235.222656 292.707031 237.863281 252.851562 C 240.503906 212.992188 237.386719 145.375 234.234375 103.710938 C 231.082031 62.042969 227.886719 46.324219 220.707031 35.84375 C 213.523438 25.367188 202.351562 20.128906 194.257812 20.695312 C 186.160156 21.265625 181.144531 27.644531 179.09375 61.359375" fill-rule="evenodd"/><path fill="#FFE66D" d="M 90.511719 313.867188 C 94.042969 320.359375 100.203125 326.511719 109.777344 329.359375 C 119.355469 332.207031 132.351562 331.75 140.902344 323.664062 C 149.453125 315.574219 153.554688 299.859375 151.730469 288.242188 C 149.90625 276.625 142.15625 269.105469 131.097656 267.054688 C 120.039062 265.003906 105.671875 268.421875 97.464844 273.777344 C 89.257812 279.128906 87.203125 286.417969 86.632812 293.480469 C 86.0625 300.542969 86.976562 307.375 90.511719 313.867188" fill-rule="evenodd"/><path fill="#FED9B7" d="M 154.695312 9.875 C 177.496094 9.648438 226.066406 9.191406 254.792969 9.304688 C 283.523438 9.417969 292.417969 10.105469 291.734375 10.785156 C 291.050781 11.46875 280.789062 12.152344 271.441406 14.316406 C 262.089844 16.480469 253.65625 20.125 249.4375 29.351562 C 245.21875 38.578125 245.21875 53.382812 244.988281 83.566406 C 244.761719 113.75 244.304688 159.308594 244.761719 195.640625 C 245.21875 231.976562 246.585938 259.082031 243.621094 280.609375 C 240.65625 302.136719 233.359375 318.082031 225.949219 329.015625 C 218.539062 339.949219 211.015625 345.871094 201.097656 350.769531 C 191.179688 355.667969 178.867188 359.539062 179.664062 358.515625 C 180.460938 357.492188 194.371094 351.566406 204.972656 340.0625 C 215.574219 328.558594 222.871094 311.476562 225.722656 278.789062 C 228.574219 246.097656 226.976562 197.804688 226.40625 159.535156 C 225.835938 121.265625 226.292969 93.019531 221.847656 74.570312 C 217.402344 56.117188 208.050781 47.464844 197.5625 38.804688 C 187.074219 30.148438 175.445312 21.492188 165.300781 16.710938 C 155.152344 11.925781 146.488281 11.015625 140.671875 10.558594 C 134.859375 10.105469 131.894531 10.105469 154.695312 9.875" fill-rule="evenodd"/><g clip-path="url(#a)"><path transform="matrix(.02183 0 0 -.02181 82.93 364.7)" fill="none" d="M 3287.327693 16268.649308 C 4331.744241 16279.037267 6556.385486 16299.992289 7872.418331 16294.79831 C 9188.451175 16289.60433 9595.696689 16258.261348 9564.383875 16226.918366 C 9533.071061 16195.575384 9063.020989 16164.232403 8634.840622 16065.009478 C 8206.660255 15965.786552 7820.170664 15798.683684 7626.925868 15375.642981 C 7433.860003 14952.602279 7433.860003 14273.802845 7423.303111 12889.875873 C 7412.92515 11505.948901 7391.990297 9417.073493 7412.92515 7751.238787 C 7433.860003 6085.404082 7496.485631 4842.610079 7360.677483 3855.574807 C 7224.869335 2868.539536 6890.627411 2137.442098 6551.196506 1636.133492 C 6211.765601 1134.824887 5867.145715 863.305113 5412.841515 638.710261 C 4958.537315 414.115409 4394.5488 236.624581 4431.050595 283.549502 C 4467.55239 330.474423 5104.723424 602.1733 5590.340438 1129.630907 C 6075.957453 1657.088515 6410.199377 2440.304853 6540.818544 3939.03669 C 6671.258782 5437.94763 6598.255192 7652.015862 6572.131359 9406.685533 C 6546.007525 11161.355204 6566.942378 12456.447211 6363.140691 13302.528616 C 6159.517934 14148.430918 5731.337567 14545.322619 5250.909533 14942.214319 C 4770.4815 15339.10602 4237.805799 15735.99772 3772.944707 15955.398593 C 3308.262546 16174.620362 2911.394993 16216.351304 2644.967678 16237.306326 C 2378.719293 16258.261348 2242.911145 16258.261348 3287.327693 16268.649308 Z M 3287.327693 16268.649308" stroke="#FFF" stroke-width="66.614" stroke-miterlimit="22.926"/></g><g clip-path="url(#b)"><path transform="matrix(.0218 0 0 -.02178 82.93 364.7)" fill="none" d="M 2331.17911 16122.461055 C 2498.138397 16071.177408 3137.850428 16022.404149 3614.18599 15899.753747 C 4090.700693 15776.924032 4404.197208 15580.575801 4555.033817 14909.405547 C 4705.691285 14238.593919 4693.688847 13093.318896 4876.054248 12562.371762 C 5058.240508 12031.603941 5434.615467 12115.16401 5868.494644 12742.581782 C 6302.552961 13369.999554 6793.936356 14541.095714 7343.719673 15202.762356 C 7893.502989 15864.249683 8501.686228 16016.486805 8277.043583 16116.005771 C 8052.221796 16215.524738 6994.753266 16262.325549 5938.897004 16281.153461 C 4883.040742 16299.981374 3829.155029 16290.836388 3149.315444 16259.27722 C 2469.475858 16227.897366 2164.040682 16173.924016 2331.17911 16122.461055 Z M 2331.17911 16122.461055" stroke="#FFF" stroke-width="66.69" stroke-miterlimit="22.926"/></g><g clip-path="url(#c)"><path transform="matrix(.0171 0 0 -.01708 82.93 364.7)" fill="none" d="M 7642.584422 4437.761859 C 7475.835993 3684.384571 7283.047399 2779.87454 6947.49474 2075.426763 C 6612.170503 1370.978986 6134.539046 866.36482 5461.149502 612.800203 C 4787.759958 359.235586 3918.84075 356.491875 3144.488459 448.863476 C 2369.907745 541.006434 1689.893949 728.264704 1163.380075 1115.127943 C 636.637779 1501.991182 263.395407 2088.688032 131.138776 2630.79958 C -1.117854 3173.139771 107.839681 3670.894659 107.839681 3717.537745 C 107.839681 3764.18083 -1.117854 3359.712113 64.439405 2864.24365 C 129.996664 2368.775188 370.068716 1782.078337 870.085579 1248.655207 C 1370.102442 715.232077 2130.064115 235.31131 3163.219104 95.153411 C 4196.602516 -45.233131 5503.407665 154.371838 6455.244242 607.541424 C 7407.309242 1060.71101 8004.634092 1767.902498 8344.983624 2524.25214 C 8685.333156 3280.601782 8768.478948 4086.566862 8683.277353 4740.027345 C 8597.847337 5393.487828 8343.841511 5894.443712 8146.71289 5843.913703 C 7949.584268 5793.155051 7809.33285 5191.139148 7642.584422 4437.761859 Z M 7642.584422 4437.761859" stroke="#FFF" stroke-width="85.039" stroke-miterlimit="22.926"/></g></svg>